<svg width="25" height="25" viewBox="0 0 25 25" fill="none" xmlns="http://www.w3.org/2000/svg">
<g clip-path="url(#clip0_114_4)">
<path d="M0.414339 25.2108L8.53752 17.3081C9.15526 17.829 9.87552 18.2346 10.6983 18.5251C11.5211 18.8156 12.3967 18.9608 13.325 18.9608C15.5521 18.9608 17.437 18.2096 18.9797 16.7072C20.5224 15.2048 21.2937 13.3919 21.2937 11.2685C21.2937 9.14508 20.5215 7.33218 18.9772 5.82978C17.4329 4.32737 15.5642 3.57617 13.3713 3.57617C11.1783 3.57617 9.31484 4.32737 7.7808 5.82978C6.24677 7.33218 5.47975 9.14658 5.47975 11.273C5.47975 12.1314 5.62388 12.9612 5.91216 13.7625C6.20043 14.5638 6.63285 15.315 7.2094 16.0161L-0.944672 23.8887L0.414339 25.2108ZM13.3558 17.1579C11.6828 17.1579 10.2607 16.582 9.08962 15.4301C7.9185 14.2783 7.33294 12.8911 7.33294 11.2685C7.33294 9.64588 7.9185 8.25866 9.08962 7.10682C10.2607 5.95498 11.6828 5.37906 13.3558 5.37906C15.046 5.37906 16.4827 5.95498 17.6658 7.10682C18.8489 8.25866 19.4405 9.64588 19.4405 11.2685C19.4405 12.8911 18.8489 14.2783 17.6658 15.4301C16.4827 16.582 15.046 17.1579 13.3558 17.1579Z" fill="#E1E1E1"/>
</g>
<defs>
<clipPath id="clip0_114_4">
<rect width="25" height="25" fill="white" transform="matrix(-1 0 0 1 25 0)"/>
</clipPath>
</defs>
</svg>
