<svg width="32" height="28" viewBox="0 0 32 28" fill="none" xmlns="http://www.w3.org/2000/svg">
<path d="M32 3.3137C30.8204 3.87763 29.5559 4.25626 28.2266 4.42812C29.5834 3.5527 30.6258 2.16707 31.1146 0.51827C29.8477 1.32656 28.4386 1.91464 26.9447 2.23151C25.7476 0.856622 24.0418 0 22.1538 0C18.5276 0 15.5872 3.16333 15.5872 7.0678C15.5872 7.62098 15.6471 8.16074 15.7593 8.67901C10.3025 8.38362 5.46676 5.56939 2.22711 1.29165C1.66098 2.33893 1.33926 3.5527 1.33926 4.84703C1.33926 7.29874 2.49645 9.46313 4.25968 10.7333C3.18229 10.6957 2.16975 10.3761 1.28439 9.84713C1.28439 9.87667 1.28439 9.90621 1.28439 9.93574C1.28439 13.3622 3.5489 16.2167 6.54914 16.8693C6.00047 17.0304 5.41937 17.1163 4.82082 17.1163C4.39685 17.1163 3.98535 17.0734 3.58382 16.9874C4.42179 19.7936 6.84592 21.8425 9.71647 21.8989C7.4719 23.7948 4.64126 24.9226 1.56371 24.9226C1.0325 24.9226 0.511262 24.8904 0 24.8232C2.90297 26.8319 6.35461 28 10.0631 28C22.1389 28 28.7429 17.2291 28.7429 7.88952C28.7429 7.58339 28.7354 7.27458 28.7254 6.97382C30.0073 5.97756 31.1196 4.73156 32 3.3137Z" fill="#E1E1E1"/>
</svg>
